<?xml version="1.0" encoding="iso-8859-1"?>
<!-- Uploaded to: SVG Repo, www.svgrepo.com, Generator: SVG Repo Mixer Tools -->
<svg fill="#000000" height="800px" width="800px" version="1.1" id="Layer_1" xmlns="http://www.w3.org/2000/svg" xmlns:xlink="http://www.w3.org/1999/xlink" 
	 viewBox="0 0 512 512" xml:space="preserve">
<g>
	<g>
		<path d="M287.947,138.74h-23.425v-21.491c0-4.706-3.815-8.521-8.521-8.521c-4.706,0-8.521,3.815-8.521,8.521v21.491h-23.425
			c-4.706,0-8.521,3.814-8.521,8.521c0,4.706,3.815,8.521,8.521,8.521h23.425v58.116c0,4.706,3.815,8.521,8.521,8.521
			c4.706,0,8.521-3.815,8.521-8.521v-58.116h23.425c4.706,0,8.521-3.815,8.521-8.521C296.468,142.554,292.653,138.74,287.947,138.74
			z"/>
	</g>
</g>
<g>
	<g>
		<path d="M442.536,0H155.001c-4.706,0-8.521,3.815-8.521,8.521c0,4.706,3.815,8.521,8.521,8.521h279.013v48.645h-18.09H96.075
			h-18.09V17.043h42.933c4.706,0,8.521-3.815,8.521-8.521c0-4.706-3.815-8.521-8.521-8.521H69.464c-4.706,0-8.521,3.815-8.521,8.521
			v65.688c0,4.707,3.815,8.521,8.521,8.521h18.09v29.177c0,74.102,48.098,137.179,114.714,159.658
			c0.84,12.373,2.219,28.735,4.416,46.133c-9.798,5.042-16.52,15.251-16.52,27.008c0,15.537,11.735,28.377,26.805,30.144
			c1.985,10.753,1.929,22.904,1.23,33.197h-10.472c-32.357,0-60.819,21.414-70.178,51.819h-0.469
			c-14.373,0-26.066,11.694-26.066,26.066c0,14.373,11.694,26.066,26.066,26.066h237.841c14.373,0,26.066-11.694,26.066-26.066
			c0-14.373-11.694-26.066-26.066-26.066h-0.469c-9.359-30.406-37.82-51.819-70.178-51.819h-10.472
			c-0.7-10.294-0.754-22.445,1.231-33.197c15.07-1.767,26.805-14.607,26.805-30.144c0-11.757-6.722-21.967-16.52-27.008
			c2.197-17.402,3.578-33.764,4.416-46.134c10.816-3.634,21.269-8.357,31.167-14.146c24.892-14.557,45.775-35.391,60.393-60.253
			c2.386-4.056,1.031-9.279-3.027-11.665c-4.06-2.386-9.279-1.029-11.665,3.027c-13.145,22.356-31.923,41.09-54.305,54.179
			c-22.895,13.389-49.772,20.606-76.297,20.606c-29.174,0-58.059-8.569-82.489-24.502c-20.971-13.676-38.447-32.543-50.459-54.512
			c-12.098-22.128-18.456-47.176-18.456-72.391V82.73h302.809v29.177c0,15.254-2.262,30.311-6.724,44.752
			c-1.39,4.497,1.129,9.268,5.626,10.657c4.497,1.388,9.268-1.13,10.657-5.626c4.965-16.072,7.483-32.821,7.483-49.783V82.73h18.09
			c4.706,0,8.521-3.815,8.521-8.521V8.521C451.058,3.815,447.242,0,442.536,0z M304.275,425.091
			c23.034,0,43.503,14.123,52.092,34.776h-37.676c-4.706,0-8.521,3.815-8.521,8.521c0,4.706,3.815,8.521,8.521,8.521h49.165h7.066
			c4.975,0,9.024,4.048,9.024,9.024c0,4.975-4.048,9.024-9.024,9.024H137.079c-4.975,0-9.024-4.048-9.024-9.024
			c0-4.975,4.048-9.024,9.024-9.024h7.066h140.46c4.706,0,8.521-3.815,8.521-8.521c0-4.706-3.815-8.521-8.521-8.521H155.634
			c8.59-20.655,29.058-34.776,52.092-34.776h18.294h59.961H304.275z M276.726,408.048h-41.45
			c0.631-10.141,0.658-21.905-0.996-32.981h43.443C276.069,386.142,276.096,397.906,276.726,408.048z M221.036,276.709
			c11.477,2.434,23.235,3.645,34.965,3.645c11.106,0,22.218-1.107,33.11-3.279c0.112-0.023,0.224-0.047,0.335-0.069
			c0.953-0.192,1.906-0.378,2.856-0.587c-0.814,10.867-2.009,24.039-3.737,37.926h-65.129c-1.728-13.882-2.923-27.057-3.737-37.926
			C220.145,276.518,220.59,276.615,221.036,276.709z M217.78,331.676c0.91-0.19,1.833-0.286,2.744-0.286h70.955
			c0.91,0,1.834,0.097,2.744,0.286c6.031,1.269,10.573,6.627,10.573,13.031c0,7.343-5.974,13.317-13.317,13.317h-3.315H223.84
			h-3.315c-7.343,0-13.317-5.974-13.317-13.317C207.206,338.303,211.749,332.945,217.78,331.676z"/>
	</g>
</g>
</svg>