<?xml version="1.0" standalone="no"?>
<!DOCTYPE svg PUBLIC "-//W3C//DTD SVG 20010904//EN"
 "http://www.w3.org/TR/2001/REC-SVG-20010904/DTD/svg10.dtd">
<svg version="1.0" xmlns="http://www.w3.org/2000/svg"
 width="512.000000pt" height="512.000000pt" viewBox="0 0 512.000000 512.000000"
 preserveAspectRatio="xMidYMid meet">

<g transform="translate(0.000000,512.000000) scale(0.100000,-0.100000)"
fill="#000000" stroke="none">
<path d="M2375 5105 c-443 -66 -830 -392 -974 -820 -86 -256 -82 -557 9 -807
43 -117 76 -146 133 -117 45 24 48 59 14 151 -52 138 -62 202 -62 388 1 149 4
187 23 257 114 422 450 729 873 798 546 88 1063 -253 1211 -798 19 -70 22
-108 23 -257 0 -186 -10 -250 -62 -388 -37 -100 -28 -143 33 -158 45 -12 71
13 104 98 53 137 72 230 77 390 6 164 -5 264 -43 397 -94 323 -340 613 -643
757 -224 107 -471 145 -716 109z"/>
<path d="M2523 4428 c-31 -15 -43 -64 -43 -175 l0 -93 -116 0 c-145 0 -174
-12 -174 -75 0 -63 29 -75 174 -75 l116 0 0 -282 c0 -160 5 -299 10 -319 21
-75 119 -75 140 0 5 20 10 159 10 319 l0 282 116 0 c145 0 174 12 174 75 0 63
-29 75 -174 75 l-116 0 0 93 c0 115 -12 160 -46 175 -30 14 -42 14 -71 0z"/>
<path d="M1175 3188 c-28 -16 -35 -28 -35 -65 0 -37 21 -62 60 -69 l27 -6 6
-276 c6 -304 18 -395 68 -555 64 -201 162 -360 324 -523 109 -111 214 -189
335 -249 30 -15 56 -29 58 -30 2 -1 -5 -21 -14 -44 -11 -29 -15 -62 -12 -114
5 -112 45 -168 173 -242 16 -10 16 -16 5 -70 -6 -33 -30 -98 -52 -145 -33 -69
-56 -100 -124 -167 l-83 -83 -121 0 c-74 0 -148 -6 -190 -16 -164 -37 -304
-175 -350 -343 -8 -31 -16 -41 -31 -41 -23 0 -61 -18 -71 -34 -10 -14 -10 -68
0 -82 4 -6 17 -16 29 -23 31 -16 2735 -16 2766 0 29 16 37 28 37 64 0 17 -4
35 -8 41 -10 16 -48 34 -71 34 -15 0 -23 10 -31 41 -46 168 -186 306 -350 343
-42 10 -116 16 -190 16 l-121 0 -83 83 c-68 67 -91 98 -124 167 -22 47 -46
112 -52 145 -11 54 -11 60 5 70 128 74 168 130 173 242 3 52 -1 85 -12 114 -9
23 -16 43 -14 44 2 1 28 15 58 30 121 60 226 138 335 249 162 163 260 322 324
523 50 160 62 251 68 555 l6 276 27 6 c39 7 60 32 60 69 0 38 -7 50 -37 66
-31 16 -2739 15 -2768 -1z m2555 -412 c0 -301 -9 -380 -58 -526 -108 -318
-352 -579 -663 -710 -77 -33 -99 -47 -109 -69 -14 -34 0 -74 33 -96 71 -46 60
-172 -19 -210 -47 -22 -661 -22 -708 0 -79 38 -90 164 -19 210 33 22 47 62 33
96 -10 22 -32 36 -109 69 -311 131 -555 392 -663 710 -49 146 -58 225 -58 526
l0 274 1170 0 1170 0 0 -274z m-940 -1794 c0 -41 42 -179 75 -247 19 -40 53
-96 75 -124 22 -28 40 -53 40 -56 0 -3 -189 -5 -420 -5 -231 0 -420 2 -420 5
0 3 18 28 40 56 22 28 56 84 75 124 33 68 75 206 75 247 0 17 13 18 230 18
217 0 230 -1 230 -18z m762 -620 c43 -21 80 -48 103 -76 32 -40 65 -103 65
-126 0 -7 -369 -10 -1160 -10 -791 0 -1160 3 -1160 10 0 49 74 150 136 186 93
55 59 53 1039 51 l910 -2 67 -33z"/>
<path d="M3475 2888 c-28 -16 -35 -28 -35 -65 0 -53 55 -87 102 -62 31 16 38
28 38 64 0 36 -8 48 -37 64 -27 14 -42 14 -68 -1z"/>
<path d="M3175 2588 c-28 -16 -35 -28 -35 -65 0 -53 55 -87 102 -62 31 16 38
28 38 64 0 36 -8 48 -37 64 -27 14 -42 14 -68 -1z"/>
<path d="M2430 1513 c-54 -21 -67 -83 -27 -121 22 -20 33 -22 158 -22 129 0
137 1 157 23 28 30 29 78 1 103 -18 16 -39 19 -148 21 -69 1 -133 0 -141 -4z"/>
</g>
</svg>
