<?xml version="1.0" standalone="no"?>
<!DOCTYPE svg PUBLIC "-//W3C//DTD SVG 20010904//EN"
 "http://www.w3.org/TR/2001/REC-SVG-20010904/DTD/svg10.dtd">
<svg version="1.0" xmlns="http://www.w3.org/2000/svg"
 width="512.000000pt" height="512.000000pt" viewBox="0 0 512.000000 512.000000"
 preserveAspectRatio="xMidYMid meet">

<g transform="translate(0.000000,512.000000) scale(0.100000,-0.100000)"
fill="#000000" stroke="none">
<path d="M2383 5109 c-525 -68 -964 -504 -1059 -1053 -30 -170 -6 -446 51
-588 7 -17 -6 -18 -179 -18 l-186 0 0 -150 0 -150 99 0 99 0 5 -277 c5 -300
11 -346 68 -518 86 -258 252 -486 472 -651 92 -69 245 -154 325 -182 l32 -11
0 -398 c0 -438 -5 -482 -60 -578 -39 -68 -131 -155 -202 -189 -31 -15 -88 -33
-127 -39 l-71 -11 0 -148 0 -148 910 0 910 0 0 148 0 147 -86 17 c-178 34
-318 166 -359 339 -12 51 -15 142 -15 462 l0 398 33 11 c80 28 237 116 327
184 263 198 439 476 515 814 13 57 19 143 22 353 l5 277 99 0 99 0 0 150 0
150 -186 0 c-173 0 -186 1 -179 18 4 9 19 60 33 112 23 86 26 113 26 280 0
211 -13 286 -84 462 -125 312 -374 571 -670 699 -200 86 -440 118 -667 88z
m340 -304 c253 -44 476 -191 623 -411 63 -94 95 -163 131 -283 23 -76 26 -104
27 -241 1 -167 -8 -221 -62 -352 l-27 -68 -352 0 -353 0 0 220 0 220 115 0
115 0 0 150 0 150 -115 0 -115 0 0 125 0 125 -150 0 -150 0 0 -125 0 -125
-115 0 -115 0 0 -150 0 -150 115 0 115 0 0 -220 0 -220 -353 0 -353 0 -27 70
c-51 130 -61 193 -61 355 1 174 18 256 83 392 103 215 253 365 465 463 74 35
197 73 271 83 70 10 209 6 288 -8z m887 -1805 l0 -150 -1050 0 -1050 0 0 150
0 150 1050 0 1050 0 0 -150z m-30 -463 c0 -26 -48 -154 -87 -232 -142 -281
-404 -480 -727 -552 -95 -21 -317 -21 -412 0 -323 72 -585 271 -727 552 -39
78 -87 206 -87 232 0 11 180 13 1020 13 840 0 1020 -2 1020 -13z m-867 -1506
c3 -350 6 -414 21 -466 20 -67 62 -160 101 -222 l26 -43 -301 0 -301 0 26 43
c39 62 81 155 101 222 15 52 18 116 21 466 l4 405 149 0 149 0 4 -405z"/>
</g>
</svg>
